<svg width="145" height="54" viewBox="0 0 145 54" fill="none" xmlns="http://www.w3.org/2000/svg">
<g filter="url(#filter0_i_305_8)">
<path d="M144.5 27.1811C144.5 48.444 60.4615 53.5 39.1985 53.5C17.9356 53.5 0.698547 48.444 0.698547 27.1811C0.698547 5.9181 17.9356 0.5 39.1985 0.5C60.4615 0.5 144.5 5.9181 144.5 27.1811Z" fill="white"/>
</g>
<g filter="url(#filter1_d_305_8)">
<path d="M18.5568 40H9.27557V13.8182H18.6335C21.267 13.8182 23.5341 14.3423 25.4347 15.3906C27.3352 16.4304 28.7969 17.9261 29.8196 19.8778C30.8509 21.8295 31.3665 24.1648 31.3665 26.8835C31.3665 29.6108 30.8509 31.9545 29.8196 33.9148C28.7969 35.875 27.3267 37.3793 25.4091 38.4276C23.5 39.4759 21.2159 40 18.5568 40ZM14.8111 35.2571H18.3267C19.9631 35.2571 21.3395 34.9673 22.456 34.3878C23.581 33.7997 24.4247 32.892 24.9872 31.6648C25.5582 30.429 25.8438 28.8352 25.8438 26.8835C25.8438 24.9489 25.5582 23.3679 24.9872 22.1406C24.4247 20.9134 23.5852 20.0099 22.4688 19.4304C21.3523 18.8509 19.9759 18.5611 18.3395 18.5611H14.8111V35.2571ZM40.3761 40L32.8846 13.8182H38.9315L43.2653 32.0099H43.4826L48.2639 13.8182H53.4414L58.2099 32.0483H58.44L62.7738 13.8182H68.8207L61.3292 40H55.9343L50.9485 22.8821H50.744L45.771 40H40.3761Z" fill="url(#paint0_linear_305_8)"/>
</g>
<g filter="url(#filter2_i_305_8)">
<path d="M92.1098 20.9863L92.1339 20.5293C92.1356 19.4121 91.9377 18.5173 91.5403 17.8448C91.3376 17.5086 91.1074 17.3403 90.8496 17.3399C90.4121 17.3392 90.1929 17.667 90.1919 18.3233C90.1909 18.9717 90.3775 19.5501 90.7518 20.0585C91.126 20.5591 91.5787 20.8683 92.1098 20.9863ZM93.5046 20.7658L93.5043 20.9884L93.5042 21.0587C94.27 20.9505 95.1768 20.5925 96.2246 19.9847C96.6233 19.7587 96.9987 19.5015 97.3507 19.213L97.3487 20.5606C95.9957 21.4883 94.7058 22.0605 93.4789 22.2774C93.359 24.1132 92.6959 26.0731 91.4896 28.1573C90.1737 30.4053 88.7182 31.9929 87.1231 32.9202C86.2317 33.4345 85.3524 33.691 84.4852 33.6897C83.4227 33.6881 82.5522 33.2688 81.8738 32.4319C81.6165 32.1112 81.4178 31.7671 81.2777 31.3997C81.1454 31.0323 81.056 30.7314 81.0095 30.497C80.4302 31.2852 79.6361 32.0105 78.6273 32.6731C77.6185 33.3278 76.7665 33.6547 76.0712 33.6536C75.3758 33.6526 74.7745 33.4798 74.2673 33.1353C73.7678 32.7908 73.3739 32.3449 73.0857 31.7976C72.5248 30.7108 72.2454 29.4838 72.2475 28.1166C72.2495 26.7416 72.49 25.2498 72.969 23.6411C73.4558 22.0247 74.1181 20.6507 74.9557 19.5191C75.1358 19.2616 75.3433 18.9181 75.5783 18.4888C75.8212 18.0517 75.9427 17.794 75.9428 17.7159C75.9429 17.6378 75.9312 17.5987 75.9078 17.5987C75.8922 17.5986 75.8453 17.622 75.7671 17.6688L74.4296 18.698C74.3045 18.7681 73.9604 18.9785 73.3974 19.3293C71.896 20.2645 70.4845 21.1257 69.163 21.9127L69.165 20.612C70.0407 20.1133 71.2958 19.3613 72.9301 18.3559C76.4568 16.1737 78.3882 15.0829 78.7241 15.0834C78.935 15.0837 79.0404 15.1659 79.0401 15.3299C79.0397 15.6346 78.6396 16.7356 77.8398 18.6328C76.3266 22.2399 75.5687 24.8716 75.5663 26.5278C75.5619 29.4263 76.423 30.8768 78.1496 30.8794C78.5558 30.88 79.0482 30.7089 79.6269 30.366C80.2134 30.0153 80.6358 29.6253 80.8943 29.196C80.8322 28.8834 80.8017 28.399 80.8027 27.7428C80.8037 27.0787 80.8399 26.3873 80.9113 25.6687C80.9827 24.9501 81.1049 24.2041 81.2779 23.431C81.4588 22.65 81.6786 21.9589 81.9373 21.3577C82.196 20.7488 82.5327 20.2493 82.9474 19.8593C83.3699 19.4615 83.835 19.2629 84.3428 19.2637C84.9834 19.2647 85.3031 19.7144 85.3017 20.6128C85.3 21.7534 84.8167 23.6472 83.8518 26.2942C83.6399 26.8876 83.4595 27.3718 83.3105 27.7465L83.0753 28.3204C83.0746 28.7735 83.2107 29.1683 83.4837 29.5046C84.0139 30.1538 84.8064 30.4793 85.8611 30.4808C86.6345 30.482 87.4084 30.1902 88.1827 29.6054C88.957 29.0206 89.6144 28.3029 90.1547 27.4521C90.6951 26.6014 91.1339 25.7036 91.4713 24.7588C91.8165 23.8062 91.9896 22.9627 91.9907 22.2283C91.5377 22.1573 91.0927 21.9731 90.6556 21.6755C90.2185 21.378 89.8752 21.0923 89.6256 20.8185C89.0251 20.1614 88.7255 19.3679 88.7269 18.4383C88.728 17.6961 88.9165 16.9971 89.2925 16.3415C89.7155 15.6077 90.3684 15.2415 91.2512 15.2428C92.759 15.2451 93.5102 17.0861 93.5046 20.7658ZM98.9717 24.5006L100.378 24.3386C100.605 24.3389 100.718 24.3938 100.718 24.5032C100.718 24.6126 100.447 25.2254 99.9064 26.3418C98.6682 28.8712 98.0487 30.3937 98.048 30.9093C98.048 30.9171 98.044 30.9484 98.0361 31.0031C98.036 31.0499 98.036 31.089 98.0359 31.1202C98.0437 31.1437 98.0515 31.1789 98.0592 31.2257C98.067 31.2726 98.0786 31.3078 98.0942 31.3313C98.1488 31.4017 98.2269 31.4369 98.3284 31.4371C98.5316 31.4374 99.1533 30.9774 100.194 30.0571C101.242 29.129 101.958 28.4074 102.342 27.8923L102.34 29.2048C99.5463 31.9897 97.6653 33.3814 96.6966 33.38C96.3528 33.3794 96.0953 33.2267 95.9238 32.9218C95.7524 32.609 95.667 32.3042 95.6674 32.0073C95.6679 31.7104 95.727 31.3707 95.8447 30.988C95.9625 30.5976 96.1194 30.1525 96.3155 29.6528C96.5194 29.1531 96.7075 28.7003 96.88 28.2943C97.0525 27.8883 97.2407 27.4511 97.4445 26.9826C97.6562 26.5064 97.7777 26.2292 97.809 26.1511C97.363 26.6036 96.8428 27.0989 96.2482 27.6371C95.6615 28.1753 95.1099 28.7096 94.5934 29.2401L94.5954 27.9276L96.978 25.4585C96.0253 25.2227 95.4086 24.8546 95.1281 24.3541C95.0658 24.2525 95.0347 24.1626 95.0348 24.0845C95.0356 23.5376 95.2434 23.0574 95.6581 22.644C96.0727 22.2306 96.6238 22.0244 97.3113 22.0254C97.6629 22.0259 97.8384 22.2332 97.8377 22.6473C97.8374 22.8895 97.7667 23.155 97.6256 23.4438C97.4846 23.7249 97.3163 23.916 97.1208 24.0173C97.4797 24.3382 98.0967 24.4992 98.9717 24.5006ZM103.638 30.7185C103.637 31.2341 103.774 31.4922 104.047 31.4926C104.219 31.4928 104.759 31.0483 105.666 30.1591C106.582 29.262 107.309 28.517 107.849 27.9241L107.847 29.2366C106.306 30.7499 105.273 31.7249 104.749 32.1616C103.795 32.9492 102.978 33.3582 102.298 33.3884C101.954 33.3879 101.697 33.2351 101.525 32.9302C101.354 32.6174 101.269 32.2189 101.269 31.7345C101.27 31.2501 101.491 30.1137 101.931 28.3253C102.371 26.5369 102.662 25.4553 102.803 25.0805C102.952 24.7058 103.073 24.4442 103.167 24.2959C103.261 24.1476 103.379 24.0306 103.519 23.9449C103.66 23.8592 103.781 23.7929 103.883 23.7462C103.992 23.6917 104.157 23.6529 104.375 23.6298C104.68 23.6068 105.055 23.5956 105.5 23.5963C104.26 27.5476 103.639 29.9216 103.638 30.7185ZM105.669 20.4794C105.114 20.4785 104.838 20.1969 104.838 19.6344C104.839 19.2437 104.984 18.869 105.274 18.51C105.571 18.1433 105.919 17.9602 106.317 17.9608C106.716 17.9614 107.013 18.04 107.208 18.1965C107.403 18.3531 107.5 18.5915 107.5 18.9118C107.499 19.2243 107.311 19.5639 106.936 19.9305C106.568 20.2971 106.146 20.4801 105.669 20.4794ZM108.276 24.4442C108.167 24.4441 108.073 24.4439 107.995 24.4438C107.925 24.4437 107.855 24.4436 107.784 24.4435C107.714 24.4356 107.659 24.4277 107.62 24.4198C107.581 24.4119 107.534 24.4002 107.48 24.3844C107.433 24.3687 107.394 24.3492 107.363 24.3257C107.331 24.3022 107.3 24.2748 107.269 24.2435C107.214 24.1809 107.187 24.0988 107.187 23.9973C107.187 23.8879 107.191 23.8176 107.199 23.7864C107.231 23.7083 107.371 23.6538 107.621 23.6229L108.606 23.5307C108.975 22.3125 109.234 21.5394 109.383 21.2115C109.532 20.8758 109.673 20.5752 109.806 20.3098C109.947 20.0444 110.08 19.8376 110.205 19.6893C110.339 19.5411 110.491 19.3812 110.663 19.2095C110.835 19.0379 111.015 18.9093 111.203 18.8236C111.648 18.6212 112.106 18.5203 112.574 18.521L112.621 18.568C112.621 18.5992 112.519 18.9037 112.315 19.4816C111.64 21.4024 111.189 22.7533 110.961 23.5342L114.536 23.3755L114.277 23.797C114.082 24.1561 112.913 24.334 110.773 24.3308C110.765 24.3308 110.643 24.7642 110.407 25.631C109.7 28.2159 109.347 29.7818 109.346 30.3287C109.345 30.8834 109.407 31.2038 109.532 31.2899C109.657 31.3682 109.786 31.4075 109.918 31.4077C110.34 31.4083 111.83 30.1996 114.389 27.7816L114.387 29.1058C114.121 29.3476 113.753 29.6869 113.284 30.1236C112.814 30.5604 112.443 30.9036 112.169 31.1532C111.903 31.395 111.566 31.6797 111.16 32.0072C110.761 32.3347 110.42 32.5842 110.139 32.7556C109.42 33.1842 108.786 33.3981 108.24 33.3973C107.31 33.3959 106.846 32.7468 106.848 31.4499C106.849 30.739 106.96 29.9032 107.18 28.9426C107.408 27.9742 107.6 27.1854 107.758 26.5763C107.915 25.9593 108.088 25.2486 108.276 24.4442ZM116.277 26.4485C116.87 27.215 117.526 27.5988 118.244 27.5999C118.698 27.6005 119.088 27.3785 119.417 26.9337C119.754 26.4888 119.923 26.0203 119.923 25.5282C119.924 25.036 119.831 24.7077 119.644 24.5434C119.464 24.3712 119.199 24.2849 118.847 24.2844C118.503 24.2838 118.179 24.3615 117.874 24.5173C117.577 24.6731 117.323 24.868 117.111 25.1021C116.704 25.5624 116.426 26.0112 116.277 26.4485ZM122.709 27.9464L122.707 29.2355C121.463 30.6008 120.352 31.6382 119.374 32.3477C118.396 33.0571 117.466 33.4112 116.583 33.4099C114.818 33.4072 113.717 32.8313 113.281 31.6822C113.118 31.2289 113.037 30.6819 113.038 30.0412C113.039 28.9006 113.279 27.815 113.757 26.7845C114.235 25.7462 114.92 24.8956 115.812 24.2329C116.711 23.5624 117.708 23.228 118.802 23.2296C120.645 23.2324 121.566 23.9213 121.564 25.2963C121.563 26.1869 121.202 26.9637 120.483 27.6267C119.763 28.2818 118.954 28.6087 118.055 28.6074C117.696 28.6068 117.321 28.5008 116.931 28.2893C116.541 28.0778 116.209 27.7609 115.936 27.3386C115.599 28.0412 115.43 28.7284 115.429 29.4003C115.426 31.205 116.081 32.1083 117.394 32.1103C117.738 32.1108 118.16 31.9474 118.66 31.62C119.169 31.2927 119.614 30.9496 119.998 30.5908C120.389 30.2242 120.882 29.7445 121.476 29.1516C122.071 28.5509 122.482 28.1492 122.709 27.9464ZM127.073 24.5428L128.48 24.3809C128.706 24.3812 128.819 24.4361 128.819 24.5454C128.819 24.6548 128.549 25.2677 128.008 26.3841C126.77 28.9135 126.15 30.436 126.149 30.9516C126.149 30.9594 126.146 30.9907 126.138 31.0453C126.138 31.0922 126.138 31.1313 126.137 31.1625C126.145 31.186 126.153 31.2211 126.161 31.268C126.168 31.3149 126.18 31.3501 126.196 31.3735C126.25 31.4439 126.328 31.4792 126.43 31.4794C126.633 31.4797 127.255 31.0197 128.295 30.0994C129.344 29.1712 130.06 28.4497 130.443 27.9346L130.441 29.2471C127.648 32.032 125.767 33.4237 124.798 33.4222C124.454 33.4217 124.197 33.269 124.025 32.964C123.854 32.6513 123.768 32.3465 123.769 32.0496C123.769 31.7527 123.828 31.4129 123.946 31.0303C124.064 30.6399 124.221 30.1948 124.417 29.6951C124.621 29.1954 124.809 28.7425 124.982 28.3366C125.154 27.9306 125.342 27.4933 125.546 27.0249C125.758 26.5487 125.879 26.2715 125.911 26.1934C125.465 26.6459 124.944 27.1412 124.35 27.6794C123.763 28.2175 123.211 28.7519 122.695 29.2823L122.697 27.9698L125.08 25.5008C124.127 25.265 123.51 24.8968 123.23 24.3964C123.167 24.2948 123.136 24.2049 123.136 24.1267C123.137 23.5799 123.345 23.0997 123.76 22.6863C124.174 22.2728 124.725 22.0666 125.413 22.0677C125.764 22.0682 125.94 22.2755 125.939 22.6896C125.939 22.9317 125.868 23.1973 125.727 23.4861C125.586 23.7671 125.418 23.9583 125.222 24.0596C125.581 24.3804 126.198 24.5415 127.073 24.5428ZM133.014 33.0127C132.748 33.1217 132.455 33.2189 132.134 33.3044C131.822 33.3898 131.505 33.4323 131.185 33.4318C130.872 33.4314 130.54 33.3996 130.189 33.3366C129.845 33.2736 129.506 33.1715 129.17 33.0304C128.405 32.7167 128.023 32.1771 128.024 31.4114C128.024 31.1068 128.138 30.7593 128.365 30.369C128.592 29.9787 128.839 29.6353 129.105 29.3389C129.379 29.0424 129.7 28.703 130.068 28.3208C130.435 27.9385 130.686 27.6654 130.819 27.5016C130.609 26.9778 130.504 26.4074 130.505 25.7902C130.506 24.8761 130.789 24.1226 131.352 23.5297C131.915 22.929 132.756 22.6295 133.873 22.6312C134.365 22.6319 134.611 22.769 134.611 23.0424C134.61 23.5268 134.398 23.9054 133.976 24.1782C133.562 24.4432 133.116 24.5753 132.64 24.5746C132.904 25.3797 133.352 26.103 133.984 26.7446C134.218 26.995 134.444 27.2336 134.663 27.4605C135.17 27.9769 135.423 28.4226 135.422 28.7976C135.421 29.3757 135.147 30.0393 134.599 30.7885L138.084 27.9461L138.082 29.2352C137.988 29.3132 137.753 29.5159 137.378 29.8435C137.01 30.1711 136.74 30.4089 136.568 30.5571C136.404 30.6975 136.13 30.9197 135.747 31.2238C135.371 31.528 135.066 31.7619 134.832 31.9256C134.605 32.0815 134.312 32.2725 133.952 32.4985C133.592 32.7245 133.279 32.8959 133.014 33.0127ZM131.321 28.4164C131.259 28.4866 131.02 28.7089 130.605 29.0833C129.682 29.9022 129.22 30.5343 129.22 30.9797C129.219 31.4172 129.445 31.7886 129.898 32.094C130.35 32.3915 130.839 32.5407 131.362 32.5415C131.885 32.5423 132.307 32.457 132.628 32.2856C132.949 32.1064 133.109 31.88 133.109 31.6066C133.11 31.3332 133.075 31.087 133.005 30.8682C132.935 30.6493 132.822 30.4226 132.666 30.188C132.518 29.9455 132.386 29.75 132.269 29.6014C132.16 29.445 131.992 29.2338 131.766 28.9679C131.54 28.6941 131.391 28.5103 131.321 28.4164Z" fill="#0038FF"/>
</g>
<defs>
<filter id="filter0_i_305_8" x="0.698547" y="0.5" width="143.801" height="57" filterUnits="userSpaceOnUse" color-interpolation-filters="sRGB">
<feFlood flood-opacity="0" result="BackgroundImageFix"/>
<feBlend mode="normal" in="SourceGraphic" in2="BackgroundImageFix" result="shape"/>
<feColorMatrix in="SourceAlpha" type="matrix" values="0 0 0 0 0 0 0 0 0 0 0 0 0 0 0 0 0 0 127 0" result="hardAlpha"/>
<feOffset dy="4"/>
<feGaussianBlur stdDeviation="2"/>
<feComposite in2="hardAlpha" operator="arithmetic" k2="-1" k3="1"/>
<feColorMatrix type="matrix" values="0 0 0 0 0.02 0 0 0 0 0 0 0 0 0 1 0 0 0 0.6 0"/>
<feBlend mode="normal" in2="shape" result="effect1_innerShadow_305_8"/>
</filter>
<filter id="filter1_d_305_8" x="5.27557" y="13.8182" width="67.5451" height="34.1818" filterUnits="userSpaceOnUse" color-interpolation-filters="sRGB">
<feFlood flood-opacity="0" result="BackgroundImageFix"/>
<feColorMatrix in="SourceAlpha" type="matrix" values="0 0 0 0 0 0 0 0 0 0 0 0 0 0 0 0 0 0 127 0" result="hardAlpha"/>
<feOffset dy="4"/>
<feGaussianBlur stdDeviation="2"/>
<feComposite in2="hardAlpha" operator="out"/>
<feColorMatrix type="matrix" values="0 0 0 0 0 0 0 0 0 0 0 0 0 0 0 0 0 0 0.5 0"/>
<feBlend mode="normal" in2="BackgroundImageFix" result="effect1_dropShadow_305_8"/>
<feBlend mode="normal" in="SourceGraphic" in2="effect1_dropShadow_305_8" result="shape"/>
</filter>
<filter id="filter2_i_305_8" x="69.1453" y="15.069" width="68.9576" height="22.7013" filterUnits="userSpaceOnUse" color-interpolation-filters="sRGB">
<feFlood flood-opacity="0" result="BackgroundImageFix"/>
<feBlend mode="normal" in="SourceGraphic" in2="BackgroundImageFix" result="shape"/>
<feColorMatrix in="SourceAlpha" type="matrix" values="0 0 0 0 0 0 0 0 0 0 0 0 0 0 0 0 0 0 127 0" result="hardAlpha"/>
<feOffset dy="4"/>
<feGaussianBlur stdDeviation="2"/>
<feComposite in2="hardAlpha" operator="arithmetic" k2="-1" k3="1"/>
<feColorMatrix type="matrix" values="0 0 0 0 0 0 0 0 0 1 0 0 0 0 0.04 0 0 0 0.77 0"/>
<feBlend mode="normal" in2="shape" result="effect1_innerShadow_305_8"/>
</filter>
<linearGradient id="paint0_linear_305_8" x1="38.5" y1="5" x2="38.5" y2="49" gradientUnits="userSpaceOnUse">
<stop stop-color="#09555A"/>
<stop offset="1" stop-color="#8F00FF"/>
</linearGradient>
</defs>
</svg>
