<svg width="155" height="48" viewBox="0 0 155 48" fill="none" xmlns="http://www.w3.org/2000/svg">
<g filter="url(#filter0_d_306_9)">
<path d="M14.8409 39H4.52841V9.90909H14.9261C17.8523 9.90909 20.3712 10.4915 22.483 11.6562C24.5947 12.8116 26.2188 14.4735 27.3551 16.642C28.5009 18.8106 29.0739 21.4053 29.0739 24.4261C29.0739 27.4564 28.5009 30.0606 27.3551 32.2386C26.2188 34.4167 24.5852 36.0881 22.4545 37.2528C20.3333 38.4176 17.7955 39 14.8409 39ZM10.679 33.7301H14.5852C16.4034 33.7301 17.9328 33.4081 19.1733 32.7642C20.4233 32.1108 21.3608 31.1023 21.9858 29.7386C22.6203 28.3655 22.9375 26.5947 22.9375 24.4261C22.9375 22.2765 22.6203 20.5199 21.9858 19.1562C21.3608 17.7926 20.428 16.7888 19.1875 16.1449C17.947 15.5009 16.4176 15.179 14.5994 15.179H10.679V33.7301ZM39.0845 39L30.7607 9.90909H37.4794L42.2947 30.1222H42.5362L47.8487 9.90909H53.6016L58.8999 30.1648H59.1555L63.9709 9.90909H70.6896L62.3658 39H56.3714L50.8317 19.9801H50.6044L45.0788 39H39.0845Z" fill="url(#paint0_linear_306_9)"/>
</g>
<g filter="url(#filter1_i_306_9)">
<path d="M100.788 20.984L100.816 20.4509C100.818 19.1475 100.587 18.1035 100.124 17.319C99.8872 16.9267 99.6186 16.7303 99.3178 16.7299C98.8074 16.7291 98.5516 17.1115 98.5504 17.8772C98.5493 18.6337 98.767 19.3085 99.2036 19.9016C99.6403 20.4856 100.168 20.8464 100.788 20.984ZM102.415 20.7267L102.415 20.9865L102.415 21.0685C103.308 20.9423 104.366 20.5246 105.589 19.8155C106.054 19.5519 106.492 19.2517 106.902 18.9151L106.9 20.4874C105.322 21.5696 103.817 22.2373 102.385 22.4904C102.245 24.6321 101.472 26.9187 100.064 29.3502C98.5292 31.9728 96.8311 33.8251 94.9701 34.9069C93.9302 35.5069 92.9043 35.8062 91.8926 35.8047C90.653 35.8028 89.6375 35.3136 88.846 34.3372C88.5458 33.963 88.3139 33.5616 88.1505 33.133C87.9962 32.7044 87.8919 32.3533 87.8377 32.0798C87.1618 32.9994 86.2354 33.8456 85.0584 34.6186C83.8815 35.3825 82.8874 35.7638 82.0763 35.7626C81.2651 35.7613 80.5635 35.5598 79.9717 35.1578C79.389 34.7559 78.9295 34.2357 78.5932 33.5972C77.9388 32.3292 77.6129 30.8978 77.6153 29.3027C77.6177 27.6985 77.8983 25.9581 78.4571 24.0813C79.025 22.1954 79.7976 20.5924 80.7749 19.2723C80.985 18.9718 81.2271 18.5712 81.5013 18.0703C81.7846 17.5603 81.9263 17.2597 81.9265 17.1686C81.9266 17.0774 81.913 17.0318 81.8857 17.0318C81.8674 17.0317 81.8127 17.059 81.7215 17.1136L80.1611 18.3143C80.0151 18.3962 79.6137 18.6416 78.9569 19.0508C77.2052 20.1419 75.5585 21.1466 74.0168 22.0649L74.019 20.5473C75.0408 19.9655 76.505 19.0881 78.4117 17.9152C82.5262 15.3693 84.7794 14.0967 85.1713 14.0973C85.4174 14.0976 85.5403 14.1935 85.5401 14.3849C85.5395 14.7404 85.0727 16.0249 84.1397 18.2383C82.3743 22.4466 81.4901 25.5169 81.4872 27.4492C81.4821 30.8307 82.4867 32.5229 84.501 32.526C84.975 32.5267 85.5495 32.327 86.2246 31.927C86.9088 31.5179 87.4017 31.0629 87.7032 30.562C87.6309 30.1973 87.5952 29.6322 87.5964 28.8666C87.5976 28.0918 87.6398 27.2852 87.7231 26.4468C87.8064 25.6084 87.949 24.7382 88.1508 23.8361C88.3618 22.925 88.6183 22.1187 88.9201 21.4174C89.222 20.7069 89.6148 20.1241 90.0985 19.6691C90.5914 19.205 91.1341 18.9734 91.7265 18.9743C92.4739 18.9754 92.8468 19.5001 92.8452 20.5483C92.8432 21.879 92.2794 24.0884 91.1536 27.1766C90.9065 27.8689 90.696 28.4337 90.5222 28.871L90.2477 29.5405C90.2469 30.0691 90.4057 30.5296 90.7242 30.922C91.3428 31.6795 92.2674 32.0591 93.4978 32.061C94.4002 32.0623 95.303 31.7219 96.2064 31.0397C97.1098 30.3574 97.8767 29.52 98.5071 28.5275C99.1375 27.535 99.6495 26.4875 100.043 25.3853C100.446 24.2739 100.648 23.2898 100.649 22.4331C100.121 22.3502 99.6013 22.1353 99.0914 21.7881C98.5815 21.441 98.181 21.1077 97.8898 20.7883C97.1891 20.0216 96.8396 19.0959 96.8412 18.0113C96.8426 17.1454 97.0625 16.33 97.5012 15.565C97.9947 14.709 98.7564 14.2818 99.7863 14.2833C101.545 14.286 102.422 16.4338 102.415 20.7267ZM108.794 25.084L110.434 24.895C110.699 24.8954 110.831 24.9594 110.831 25.087C110.83 25.2146 110.515 25.9297 109.884 27.2321C108.439 30.1831 107.717 31.9593 107.716 32.5609C107.716 32.57 107.711 32.6064 107.702 32.6702C107.702 32.7249 107.702 32.7705 107.702 32.807C107.711 32.8343 107.72 32.8753 107.729 32.93C107.738 32.9847 107.752 33.0258 107.77 33.0532C107.833 33.1353 107.925 33.1764 108.043 33.1766C108.28 33.177 109.005 32.6403 110.219 31.5666C111.442 30.4838 112.278 29.642 112.725 29.0411L112.723 30.5723C109.464 33.8213 107.269 35.445 106.139 35.4433C105.738 35.4427 105.438 35.2645 105.238 34.9087C105.038 34.5438 104.938 34.1882 104.939 33.8419C104.939 33.4955 105.008 33.0991 105.145 32.6527C105.283 32.1972 105.466 31.6779 105.695 31.0949C105.932 30.512 106.152 29.9837 106.353 29.51C106.554 29.0363 106.774 28.5263 107.012 27.9797C107.259 27.4241 107.401 27.1008 107.437 27.0097C106.917 27.5375 106.31 28.1154 105.616 28.7433C104.932 29.3711 104.288 29.9945 103.686 30.6134L103.688 29.0822L106.468 26.2016C105.356 25.9265 104.637 25.497 104.309 24.9132C104.237 24.7946 104.2 24.6897 104.2 24.5986C104.201 23.9605 104.444 23.4004 104.928 22.918C105.411 22.4357 106.054 22.1951 106.856 22.1963C107.267 22.1969 107.471 22.4388 107.471 22.9218C107.47 23.2044 107.388 23.5142 107.223 23.8511C107.059 24.179 106.862 24.402 106.634 24.5202C107.053 24.8945 107.773 25.0824 108.794 25.084ZM114.238 32.3383C114.237 32.9398 114.396 33.2409 114.715 33.2413C114.915 33.2416 115.545 32.723 116.604 31.6856C117.672 30.639 118.521 29.7698 119.151 29.0781L119.148 30.6093C117.35 32.3749 116.145 33.5124 115.534 34.0219C114.421 34.9408 113.467 35.4178 112.674 35.4531C112.273 35.4525 111.973 35.2743 111.773 34.9185C111.573 34.5537 111.473 34.0887 111.474 33.5236C111.475 32.9585 111.732 31.6327 112.246 29.5462C112.759 27.4597 113.098 26.1979 113.263 25.7606C113.437 25.3234 113.579 25.0183 113.688 24.8452C113.798 24.6722 113.935 24.5357 114.099 24.4357C114.263 24.3357 114.405 24.2584 114.523 24.2039C114.651 24.1403 114.843 24.095 115.098 24.0681C115.453 24.0413 115.891 24.0282 116.41 24.029C114.963 28.6388 114.239 31.4086 114.238 32.3383ZM116.607 20.3926C115.96 20.3916 115.637 20.063 115.638 19.4068C115.639 18.951 115.808 18.5138 116.146 18.095C116.493 17.6672 116.899 17.4536 117.364 17.4543C117.828 17.455 118.175 17.5466 118.402 17.7293C118.63 17.9119 118.743 18.1901 118.743 18.5638C118.742 18.9284 118.523 19.3245 118.085 19.7522C117.656 20.18 117.163 20.3934 116.607 20.3926ZM119.649 25.0183C119.521 25.0181 119.412 25.0179 119.321 25.0178C119.239 25.0177 119.157 25.0175 119.075 25.0174C118.993 25.0082 118.929 24.999 118.884 24.9898C118.838 24.9806 118.783 24.9668 118.72 24.9485C118.665 24.9302 118.619 24.9074 118.583 24.88C118.546 24.8526 118.51 24.8206 118.474 24.7841C118.41 24.7111 118.378 24.6153 118.378 24.4968C118.379 24.3692 118.383 24.2872 118.392 24.2508C118.429 24.1597 118.593 24.0961 118.885 24.0601L120.034 23.9524C120.464 22.5312 120.766 21.6293 120.94 21.2468C121.114 20.8551 121.278 20.5044 121.434 20.1948C121.598 19.8851 121.754 19.6438 121.9 19.4709C122.055 19.2979 122.233 19.1113 122.434 18.9111C122.634 18.7109 122.844 18.5608 123.063 18.4609C123.583 18.2247 124.117 18.107 124.663 18.1078L124.718 18.1626C124.718 18.1991 124.599 18.5544 124.361 19.2285C123.574 21.4695 123.047 23.0455 122.782 23.9566L126.952 23.7714L126.65 24.2632C126.422 24.6821 125.059 24.8897 122.561 24.8859C122.552 24.8859 122.41 25.3916 122.135 26.4029C121.31 29.4186 120.898 31.2454 120.897 31.8834C120.896 32.5306 120.968 32.9044 121.114 33.0049C121.259 33.0962 121.41 33.142 121.565 33.1423C122.057 33.143 123.795 31.7329 126.78 28.9118L126.778 30.4567C126.467 30.7388 126.038 31.1347 125.491 31.6443C124.943 32.1539 124.51 32.5542 124.19 32.8454C123.88 33.1275 123.487 33.4596 123.013 33.8417C122.547 34.2238 122.15 34.5149 121.822 34.7149C120.983 35.215 120.244 35.4645 119.606 35.4635C118.521 35.4619 117.98 34.7046 117.983 33.1916C117.984 32.3621 118.113 31.3871 118.37 30.2664C118.636 29.1365 118.86 28.2163 119.044 27.5056C119.227 26.7859 119.429 25.9567 119.649 25.0183ZM128.983 27.3565C129.675 28.2508 130.44 28.6986 131.278 28.6998C131.807 28.7006 132.263 28.4416 132.647 27.9226C133.039 27.4037 133.236 26.8571 133.237 26.2829C133.238 25.7086 133.129 25.3257 132.911 25.1339C132.701 24.9331 132.392 24.8324 131.981 24.8317C131.58 24.8311 131.202 24.9217 130.846 25.1035C130.5 25.2852 130.203 25.5127 129.957 25.7857C129.482 26.3228 129.157 26.8464 128.983 27.3565ZM136.487 29.1042L136.484 30.6081C135.033 32.2009 133.737 33.4112 132.596 34.2389C131.456 35.0666 130.37 35.4797 129.34 35.4782C127.281 35.4751 125.996 34.8032 125.488 33.4626C125.297 32.9337 125.203 32.2955 125.204 31.5481C125.206 30.2174 125.486 28.9509 126.043 27.7486C126.601 26.5372 127.4 25.5449 128.44 24.7717C129.49 23.9895 130.653 23.5993 131.929 23.6012C134.08 23.6044 135.154 24.4081 135.152 26.0123C135.15 27.0514 134.729 27.9576 133.89 28.7311C133.05 29.4955 132.106 29.8769 131.058 29.8753C130.639 29.8747 130.201 29.751 129.746 29.5042C129.291 29.2574 128.904 28.8877 128.585 28.395C128.192 29.2147 127.995 30.0165 127.994 30.8004C127.991 32.9058 128.755 33.9597 130.286 33.962C130.687 33.9626 131.18 33.772 131.763 33.39C132.356 33.0081 132.877 32.6078 133.324 32.1892C133.78 31.7615 134.355 31.2019 135.049 30.5102C135.743 29.8094 136.222 29.3407 136.487 29.1042ZM141.579 25.1333L143.22 24.9444C143.484 24.9448 143.616 25.0088 143.616 25.1364C143.616 25.264 143.3 25.979 142.669 27.2814C141.225 30.2324 140.502 32.0086 140.501 32.6102C140.501 32.6193 140.496 32.6558 140.487 32.7196C140.487 32.7742 140.487 32.8198 140.487 32.8563C140.496 32.8836 140.505 32.9247 140.514 32.9794C140.523 33.0341 140.537 33.0751 140.555 33.1025C140.619 33.1846 140.71 33.2257 140.828 33.2259C141.065 33.2263 141.791 32.6896 143.004 31.6159C144.227 30.5331 145.063 29.6913 145.51 29.0904L145.508 30.6216C142.249 33.8706 140.055 35.4943 138.924 35.4926C138.523 35.492 138.223 35.3138 138.023 34.958C137.823 34.5931 137.723 34.2375 137.724 33.8912C137.724 33.5448 137.793 33.1484 137.931 32.702C138.068 32.2465 138.251 31.7273 138.48 31.1443C138.718 30.5613 138.937 30.033 139.138 29.5593C139.34 29.0857 139.559 28.5756 139.797 28.0291C140.044 27.4734 140.186 27.1501 140.222 27.059C139.702 27.5869 139.095 28.1647 138.401 28.7926C137.717 29.4205 137.073 30.0438 136.471 30.6627L136.473 29.1315L139.253 26.2509C138.141 25.9758 137.422 25.5463 137.095 24.9625C137.022 24.8439 136.985 24.739 136.986 24.6479C136.987 24.0098 137.229 23.4497 137.713 22.9673C138.197 22.485 138.839 22.2444 139.642 22.2456C140.052 22.2462 140.256 22.4881 140.256 22.9711C140.255 23.2537 140.173 23.5635 140.008 23.9005C139.844 24.2283 139.647 24.4514 139.419 24.5695C139.838 24.9438 140.558 25.1318 141.579 25.1333ZM148.509 35.0148C148.199 35.142 147.857 35.2554 147.483 35.3551C147.118 35.4548 146.749 35.5044 146.376 35.5038C146.011 35.5033 145.624 35.4662 145.214 35.3927C144.813 35.3192 144.416 35.2001 144.025 35.0354C143.132 34.6695 142.686 34.0399 142.688 33.1467C142.688 32.7912 142.821 32.3858 143.086 31.9305C143.351 31.4752 143.639 31.0746 143.949 30.7287C144.269 30.3828 144.643 29.9869 145.072 29.5409C145.501 29.0949 145.793 28.7764 145.948 28.5852C145.703 27.9741 145.581 27.3086 145.582 26.5885C145.584 25.5221 145.913 24.6431 146.571 23.9513C147.228 23.2505 148.208 22.9011 149.512 22.903C150.086 22.9039 150.373 23.0638 150.372 23.3828C150.371 23.948 150.125 24.3896 149.632 24.7079C149.148 25.0171 148.629 25.1712 148.073 25.1704C148.381 26.1097 148.904 26.9536 149.641 27.7021C149.914 27.9941 150.178 28.2725 150.433 28.5372C151.024 29.1397 151.32 29.6597 151.319 30.0972C151.318 30.7716 150.998 31.5459 150.359 32.4199L154.424 29.1038L154.422 30.6077C154.312 30.6987 154.039 30.9352 153.601 31.3174C153.172 31.6996 152.857 31.9771 152.656 32.15C152.464 32.3137 152.145 32.573 151.698 32.9278C151.26 33.2826 150.904 33.5555 150.63 33.7465C150.366 33.9284 150.023 34.1512 149.604 34.4149C149.184 34.6786 148.819 34.8786 148.509 35.0148ZM146.535 29.6525C146.462 29.7344 146.183 29.9937 145.7 30.4305C144.623 31.3859 144.084 32.1234 144.083 32.6429C144.082 33.1533 144.346 33.5867 144.874 33.9429C145.402 34.2901 145.972 34.4641 146.582 34.465C147.193 34.466 147.685 34.3664 148.059 34.1665C148.433 33.9574 148.62 33.6934 148.621 33.3744C148.621 33.0554 148.581 32.7682 148.499 32.5129C148.418 32.2575 148.286 31.993 148.104 31.7193C147.931 31.4365 147.777 31.2084 147.64 31.035C147.513 30.8525 147.317 30.6061 147.053 30.2958C146.789 29.9764 146.617 29.762 146.535 29.6525Z" fill="#0038FF"/>
</g>
<defs>
<filter id="filter0_d_306_9" x="0.528412" y="9.90909" width="74.1612" height="37.0909" filterUnits="userSpaceOnUse" color-interpolation-filters="sRGB">
<feFlood flood-opacity="0" result="BackgroundImageFix"/>
<feColorMatrix in="SourceAlpha" type="matrix" values="0 0 0 0 0 0 0 0 0 0 0 0 0 0 0 0 0 0 127 0" result="hardAlpha"/>
<feOffset dy="4"/>
<feGaussianBlur stdDeviation="2"/>
<feComposite in2="hardAlpha" operator="out"/>
<feColorMatrix type="matrix" values="0 0 0 0 0 0 0 0 0 0 0 0 0 0 0 0 0 0 0.5 0"/>
<feBlend mode="normal" in2="BackgroundImageFix" result="effect1_dropShadow_306_9"/>
<feBlend mode="normal" in="SourceGraphic" in2="effect1_dropShadow_306_9" result="shape"/>
</filter>
<filter id="filter1_i_306_9" x="73.9962" y="14.0805" width="80.4505" height="25.8182" filterUnits="userSpaceOnUse" color-interpolation-filters="sRGB">
<feFlood flood-opacity="0" result="BackgroundImageFix"/>
<feBlend mode="normal" in="SourceGraphic" in2="BackgroundImageFix" result="shape"/>
<feColorMatrix in="SourceAlpha" type="matrix" values="0 0 0 0 0 0 0 0 0 0 0 0 0 0 0 0 0 0 127 0" result="hardAlpha"/>
<feOffset dy="4"/>
<feGaussianBlur stdDeviation="2"/>
<feComposite in2="hardAlpha" operator="arithmetic" k2="-1" k3="1"/>
<feColorMatrix type="matrix" values="0 0 0 0 0 0 0 0 0 1 0 0 0 0 0.04 0 0 0 0.77 0"/>
<feBlend mode="normal" in2="shape" result="effect1_innerShadow_306_9"/>
</filter>
<linearGradient id="paint0_linear_306_9" x1="37" y1="0" x2="37" y2="48" gradientUnits="userSpaceOnUse">
<stop stop-color="#09555A"/>
<stop offset="1" stop-color="#8F00FF"/>
</linearGradient>
</defs>
</svg>
